{"glyphs":{"0":{"ha":833,"x_min":0,"x_max":764,"o":"m 764 278 q 683 81 764 163 q 486 0 601 0 l 278 0 q 81 81 163 0 q 0 278 0 163 l 0 625 q 81 822 0 740 q 278 903 163 903 l 486 903 q 683 822 601 903 q 764 625 764 740 l 764 278 m 486 319 l 486 583 q 466 633 486 613 q 417 653 446 653 l 347 653 q 298 633 318 653 q 278 583 278 613 l 278 319 q 298 270 278 290 q 347 250 318 250 l 417 250 q 466 270 446 250 q 486 319 486 290 z "},"1":{"ha":417,"x_min":0,"x_max":347,"o":"m 347 0 l 69 0 l 69 625 l 0 625 l 0 903 l 347 903 l 347 0 z "},"2":{"ha":833,"x_min":0,"x_max":764,"o":"m 764 0 l 0 0 l 0 250 q 81 417 0 347 q 278 486 163 486 q 425 506 364 486 q 486 556 486 526 l 486 583 q 466 633 486 613 q 417 653 446 653 l 347 653 q 298 633 318 653 q 278 583 278 613 l 278 556 l 0 556 l 0 625 q 81 822 0 740 q 278 903 163 903 l 486 903 q 683 822 601 903 q 764 625 764 740 l 764 528 q 683 361 764 431 q 486 292 601 292 q 388 279 429 292 q 347 250 347 267 l 764 250 l 764 0 z "},"3":{"ha":833,"x_min":0,"x_max":764,"o":"m 764 278 q 683 81 764 163 q 486 0 601 0 l 278 0 q 81 81 163 0 q 0 278 0 163 l 0 347 l 278 347 l 278 319 q 298 270 278 290 q 347 250 318 250 l 417 250 q 466 270 446 250 q 486 319 486 290 q 466 369 486 349 q 417 389 446 389 l 382 389 l 382 514 l 417 514 q 466 534 446 514 q 486 583 486 554 q 466 633 486 613 q 417 653 446 653 l 347 653 q 298 633 318 653 q 278 583 278 613 l 278 556 l 0 556 l 0 625 q 81 822 0 740 q 278 903 163 903 l 486 903 q 683 822 601 903 q 764 625 764 740 q 747 522 764 558 q 694 451 736 497 q 747 381 736 406 q 764 278 764 344 z "},"4":{"ha":833,"x_min":0,"x_max":764,"o":"m 764 139 l 694 139 l 694 0 l 417 0 l 417 139 l 0 139 l 0 361 l 278 903 l 694 903 l 694 361 l 764 361 l 764 139 m 417 361 l 417 667 l 278 361 l 417 361 z "},"5":{"ha":833,"x_min":0,"x_max":764,"o":"m 764 278 q 683 81 764 163 q 486 0 601 0 l 278 0 q 81 81 163 0 q 0 278 0 163 l 0 319 l 278 319 q 298 270 278 290 q 347 250 318 250 l 417 250 q 466 270 446 250 q 486 319 486 290 l 486 389 q 466 438 486 418 q 417 458 446 458 l 347 458 q 298 438 318 458 q 278 389 278 418 l 0 389 l 69 903 l 736 903 l 736 625 l 299 625 l 278 488 q 331 535 278 515 q 458 556 383 556 l 486 556 q 683 490 601 556 q 764 333 764 425 l 764 278 z "},"6":{"ha":833,"x_min":0,"x_max":764,"o":"m 764 278 q 683 81 764 163 q 486 0 601 0 l 278 0 q 81 81 163 0 q 0 278 0 163 l 0 625 q 81 822 0 740 q 278 903 163 903 l 486 903 q 683 822 601 903 q 764 625 764 740 l 764 583 l 486 583 q 466 633 486 613 q 417 653 446 653 l 347 653 q 298 633 318 653 q 278 583 278 613 l 278 460 q 331 508 278 488 q 458 528 383 528 l 486 528 q 683 463 601 528 q 764 306 764 397 l 764 278 m 486 319 l 486 361 q 466 410 486 390 q 417 431 446 431 l 347 431 q 298 410 318 431 q 278 361 278 390 l 278 319 q 298 270 278 290 q 347 250 318 250 l 417 250 q 466 270 446 250 q 486 319 486 290 z "},"7":{"ha":833,"x_min":0,"x_max":764,"o":"m 764 625 q 650 539 707 582 q 494 356 551 457 q 417 42 417 217 l 417 0 l 139 0 l 139 83 q 222 424 139 257 q 382 625 296 571 l 0 625 l 0 903 l 764 903 l 764 625 z "},"8":{"ha":833,"x_min":0,"x_max":764,"o":"m 764 278 q 683 81 764 163 q 486 0 601 0 l 278 0 q 81 81 163 0 q 0 278 0 163 q 17 381 0 344 q 69 451 28 406 q 17 522 28 497 q 0 625 0 558 q 81 822 0 740 q 278 903 163 903 l 486 903 q 683 822 601 903 q 764 625 764 740 q 747 522 764 558 q 694 451 736 497 q 747 381 736 406 q 764 278 764 344 m 486 583 q 466 633 486 613 q 417 653 446 653 l 347 653 q 298 633 318 653 q 278 583 278 613 q 298 534 278 554 q 347 514 318 514 l 417 514 q 466 534 446 514 q 486 583 486 554 m 486 319 q 466 369 486 349 q 417 389 446 389 l 347 389 q 298 369 318 389 q 278 319 278 349 q 298 270 278 290 q 347 250 318 250 l 417 250 q 466 270 446 250 q 486 319 486 290 z "},"9":{"ha":833,"x_min":0,"x_max":764,"o":"m 764 278 q 683 81 764 163 q 486 0 601 0 l 278 0 q 81 81 163 0 q 0 278 0 163 l 0 319 l 278 319 q 298 270 278 290 q 347 250 318 250 l 417 250 q 466 270 446 250 q 486 319 486 290 l 486 443 q 433 395 486 415 q 306 375 381 375 l 278 375 q 81 440 163 375 q 0 597 0 506 l 0 625 q 81 822 0 740 q 278 903 163 903 l 486 903 q 683 822 601 903 q 764 625 764 740 l 764 278 m 486 542 l 486 583 q 466 633 486 613 q 417 653 446 653 l 347 653 q 298 633 318 653 q 278 583 278 613 l 278 542 q 298 492 278 513 q 347 472 318 472 l 417 472 q 466 492 446 472 q 486 542 486 513 z "}," ":{"ha":556,"x_min":0,"x_max":0,"o":""},"!":{"ha":347,"x_min":0,"x_max":278,"o":"m 278 903 l 250 347 l 28 347 l 0 903 l 278 903 m 278 139 q 237 41 278 82 q 139 0 196 0 q 41 41 82 0 q 0 139 0 82 q 41 237 0 196 q 139 278 82 278 q 237 237 196 278 q 278 139 278 196 z "},"\"":{"ha":653,"x_min":0,"x_max":583,"o":"m 583 764 q 502 567 583 649 q 306 486 421 486 l 306 556 q 403 576 363 556 q 444 625 444 596 q 347 666 388 625 q 306 764 306 707 q 347 862 306 821 q 444 903 388 903 q 542 862 501 903 q 583 764 583 821 m 278 764 q 197 567 278 649 q 0 486 115 486 l 0 556 q 98 576 57 556 q 139 625 139 596 q 41 666 82 625 q 0 764 0 707 q 41 862 0 821 q 139 903 82 903 q 237 862 196 903 q 278 764 278 821 m 306 486 m 0 486 z "},"#":{"ha":333,"x_min":14,"x_max":264,"o":"m 264 903 l 194 792 l 194 736 l 222 736 l 222 708 l 208 708 l 208 681 l 222 681 l 222 653 l 208 653 l 208 625 l 222 625 l 222 597 l 194 597 l 194 528 l 208 528 l 208 347 l 222 319 l 222 28 l 146 0 l 69 28 l 69 528 l 83 528 l 83 597 l 56 597 l 56 625 l 69 625 l 69 653 l 56 653 l 56 681 l 69 681 l 69 708 l 56 708 l 56 736 l 83 736 l 83 792 l 14 903 l 264 903 z "},"'":{"ha":347,"x_min":0,"x_max":278,"o":"m 278 764 q 197 567 278 649 q 0 486 115 486 l 0 556 q 98 576 57 556 q 139 625 139 596 q 41 666 82 625 q 0 764 0 707 q 41 862 0 821 q 139 903 82 903 q 237 862 196 903 q 278 764 278 821 m 0 486 z "},"(":{"ha":556,"x_min":69,"x_max":417,"o":"m 417 -139 l 347 -139 q 135 122 200 -17 q 69 451 69 260 q 135 781 69 642 q 347 1042 200 919 l 417 1042 q 235 773 289 908 q 181 451 181 638 q 234 129 181 264 q 417 -139 288 -6 z "},")":{"ha":556,"x_min":69,"x_max":417,"o":"m 417 451 q 351 122 417 260 q 139 -139 286 -17 l 69 -139 q 252 129 199 -6 q 306 451 306 264 q 251 773 306 638 q 69 1042 197 908 l 139 1042 q 351 781 286 919 q 417 451 417 642 z "},"*":{"ha":972,"x_min":0,"x_max":903,"o":"m 903 451 q 770 133 903 265 q 451 0 638 0 q 132 132 264 0 q 0 451 0 264 q 133 770 0 638 q 451 903 265 903 q 770 770 638 903 q 903 451 903 638 m 771 685 q 493 844 667 826 l 493 817 q 568 800 531 813 l 554 761 q 672 692 621 739 l 675 690 l 703 719 q 747 669 726 697 l 771 685 m 847 450 l 847 451 q 813 613 847 535 l 789 599 q 811 525 804 563 l 771 517 q 778 451 778 485 q 774 414 778 439 q 769 378 769 389 l 810 368 q 789 304 803 335 l 814 290 q 847 450 847 367 m 410 817 l 410 846 q 132 685 236 828 l 156 671 q 207 726 179 701 l 235 696 q 294 733 258 717 q 357 764 353 763 l 344 804 q 410 817 376 814 m 708 538 q 658 625 692 586 l 563 544 q 481 594 531 583 l 506 717 q 451 722 479 722 q 404 718 428 722 l 426 596 q 342 547 376 586 l 249 631 q 197 544 214 592 l 314 501 q 306 450 306 476 q 313 404 306 426 l 194 365 q 244 278 211 317 l 339 357 q 422 308 372 318 l 397 186 q 451 181 424 181 q 499 185 475 181 l 476 308 q 561 356 526 317 l 654 272 q 706 358 689 311 l 589 401 q 597 450 597 425 l 597 451 q 589 497 597 475 l 708 538 m 771 218 l 747 232 q 696 176 725 201 l 668 207 q 547 139 615 161 l 546 139 l 558 100 q 493 86 526 90 l 493 58 q 771 218 668 76 m 133 525 l 93 535 q 114 599 101 568 l 90 613 q 56 450 56 535 q 89 290 56 367 l 114 304 q 90 378 99 340 l 132 386 q 125 451 125 418 q 133 524 125 488 l 133 525 m 410 57 l 410 86 q 335 101 372 90 l 349 142 q 229 213 282 164 l 228 213 l 200 182 q 156 232 175 206 l 131 218 q 410 57 235 75 z "},",":{"ha":347,"x_min":0,"x_max":278,"o":"m 278 139 q 197 -58 278 24 q 0 -139 115 -139 l 0 -69 q 98 -49 57 -69 q 139 0 139 -29 q 41 41 82 0 q 0 139 0 82 q 41 237 0 196 q 139 278 82 278 q 237 237 196 278 q 278 139 278 196 m 0 -139 z "},"-":{"ha":625,"x_min":69,"x_max":486,"o":"m 486 382 l 69 382 l 69 521 l 486 521 l 486 382 z "},".":{"ha":347,"x_min":0,"x_max":278,"o":"m 278 139 q 237 41 278 82 q 139 0 196 0 q 41 41 82 0 q 0 139 0 82 q 41 237 0 196 q 139 278 82 278 q 237 237 196 278 q 278 139 278 196 z "},":":{"ha":347,"x_min":0,"x_max":278,"o":"m 278 625 q 237 527 278 568 q 139 486 196 486 q 41 527 82 486 q 0 625 0 568 q 41 723 0 682 q 139 764 82 764 q 237 723 196 764 q 278 625 278 682 m 278 139 q 237 41 278 82 q 139 0 196 0 q 41 41 82 0 q 0 139 0 82 q 41 237 0 196 q 139 278 82 278 q 237 237 196 278 q 278 139 278 196 z "},";":{"ha":347,"x_min":0,"x_max":278,"o":"m 278 625 q 237 527 278 568 q 139 486 196 486 q 41 527 82 486 q 0 625 0 568 q 41 723 0 682 q 139 764 82 764 q 237 723 196 764 q 278 625 278 682 m 278 139 q 197 -58 278 24 q 0 -139 115 -139 l 0 -69 q 98 -49 57 -69 q 139 0 139 -29 q 41 41 82 0 q 0 139 0 82 q 41 237 0 196 q 139 278 82 278 q 237 237 196 278 q 278 139 278 196 m 0 -139 z "},"<":{"ha":347,"x_min":-97,"x_max":375,"o":"m 375 0 l -97 0 l -97 278 l 375 278 l 375 0 z "},">":{"ha":347,"x_min":-97,"x_max":375,"o":"m 375 625 l -97 625 l -97 903 l 375 903 l 375 625 z "},"?":{"ha":764,"x_min":0,"x_max":694,"o":"m 694 597 q 625 469 694 522 q 458 417 556 417 q 409 397 429 417 q 389 347 389 376 l 167 347 l 167 375 q 219 503 167 450 q 347 556 272 556 q 397 576 376 556 q 417 625 417 596 l 417 653 q 397 702 417 682 q 347 722 376 722 q 298 702 318 722 q 278 653 278 682 l 278 597 l 0 597 l 0 625 q 81 822 0 740 q 278 903 163 903 l 417 903 q 613 822 532 903 q 694 625 694 740 l 694 597 m 417 139 q 376 41 417 82 q 278 0 335 0 q 180 41 221 0 q 139 139 139 82 q 180 237 139 196 q 278 278 221 278 q 376 237 335 278 q 417 139 417 196 z "},"@":{"ha":972,"x_min":0,"x_max":903,"o":"m 903 444 q 771 125 903 257 q 451 -7 639 -7 q 132 125 264 -7 q 0 444 0 257 q 65 677 0 571 q 236 842 129 783 q 133 613 133 738 q 171 457 133 522 q 307 375 218 375 q 383 440 356 375 q 406 560 406 494 q 368 692 406 635 q 282 761 333 744 l 333 822 q 401 750 378 797 q 369 867 396 840 l 451 965 l 533 867 q 501 750 507 840 q 569 822 525 797 l 621 761 q 535 692 569 744 q 497 560 497 635 q 519 440 497 494 q 596 375 547 375 q 732 457 685 375 q 769 613 769 522 q 667 842 769 738 q 838 677 774 783 q 903 444 903 571 z "},"A":{"ha":1042,"x_min":-97,"x_max":972,"o":"m 972 0 l 681 0 l 643 111 l 329 111 l 292 0 l 0 0 l 211 625 l -97 625 l -97 903 l 667 903 l 972 0 m 578 306 l 486 575 l 394 306 l 578 306 z "},"B":{"ha":903,"x_min":-97,"x_max":833,"o":"m 833 306 q 744 90 833 179 q 528 0 654 0 l 0 0 l 0 625 l -97 625 l -97 903 l 528 903 q 744 813 654 903 q 833 597 833 724 q 782 451 833 543 q 833 306 833 360 m 556 597 q 472 667 556 667 l 278 667 l 278 528 l 472 528 q 556 597 556 528 m 556 306 q 472 375 556 375 l 278 375 l 278 236 l 472 236 q 556 306 556 236 z "},"C":{"ha":833,"x_min":0,"x_max":764,"o":"m 764 0 l 451 0 q 132 132 264 0 q 0 451 0 264 q 133 770 0 638 q 451 903 265 903 l 764 903 l 764 625 l 451 625 q 328 574 379 625 q 278 451 278 524 q 328 328 278 379 q 451 278 379 278 l 764 278 l 764 0 z "},"D":{"ha":903,"x_min":-97,"x_max":833,"o":"m 833 451 q 701 132 833 264 q 382 0 569 0 l 0 0 l 0 625 l -97 625 l -97 903 l 382 903 q 701 770 568 903 q 833 451 833 638 m 556 451 q 505 574 556 524 q 382 625 454 625 l 278 625 l 278 278 l 382 278 q 505 328 454 278 q 556 451 556 379 z "},"E":{"ha":903,"x_min":-97,"x_max":833,"o":"m 833 0 l 0 0 l 0 625 l -97 625 l -97 903 l 833 903 l 833 625 l 278 625 l 278 556 l 694 556 l 694 347 l 278 347 l 278 278 l 833 278 l 833 0 z "},"F":{"ha":903,"x_min":-97,"x_max":833,"o":"m 833 625 l 278 625 l 278 556 l 694 556 l 694 347 l 278 347 l 278 0 l 0 0 l 0 625 l -97 625 l -97 903 l 833 903 l 833 625 z "},"G":{"ha":903,"x_min":0,"x_max":833,"o":"m 833 0 l 451 0 q 132 132 264 0 q 0 451 0 264 q 133 770 0 638 q 451 903 265 903 l 833 903 l 833 625 l 451 625 q 328 574 379 625 q 278 451 278 524 q 328 328 278 379 q 451 278 379 278 l 556 278 l 556 486 l 833 486 l 833 0 z "},"H":{"ha":903,"x_min":-97,"x_max":833,"o":"m 833 0 l 556 0 l 556 347 l 278 347 l 278 0 l 0 0 l 0 625 l -97 625 l -97 903 l 278 903 l 278 556 l 556 556 l 556 903 l 833 903 l 833 0 z "},"I":{"ha":347,"x_min":-97,"x_max":278,"o":"m 278 0 l 0 0 l 0 625 l -97 625 l -97 903 l 278 903 l 278 0 z "},"J":{"ha":556,"x_min":-97,"x_max":486,"o":"m 486 139 q 364 -156 486 -33 q 69 -278 242 -278 l 0 0 l 69 0 q 167 41 126 0 q 208 139 208 82 l 208 625 l -97 625 l -97 903 l 486 903 l 486 139 z "},"K":{"ha":931,"x_min":-97,"x_max":861,"o":"m 861 0 l 667 0 q 472 83 556 0 l 278 278 l 278 0 l 0 0 l 0 625 l -97 625 l -97 903 l 278 903 l 278 549 l 514 903 l 833 903 l 521 435 l 653 304 q 736 278 679 278 l 861 278 l 861 0 z "},"L":{"ha":903,"x_min":-97,"x_max":833,"o":"m 833 0 l 0 0 l 0 625 l -97 625 l -97 903 l 278 903 l 278 278 l 833 278 l 833 0 z "},"M":{"ha":1042,"x_min":-97,"x_max":972,"o":"m 972 0 l 694 0 l 694 306 l 486 0 l 278 306 l 278 0 l 0 0 l 0 625 l -97 625 l -97 903 l 278 903 l 486 597 l 694 903 l 972 903 l 972 0 z "},"N":{"ha":903,"x_min":-97,"x_max":833,"o":"m 833 0 l 556 0 q 442 379 556 258 q 278 458 367 458 l 278 0 l 0 0 l 0 625 l -97 625 l -97 903 l 6 903 q 363 826 201 903 q 556 667 506 758 l 556 903 l 833 903 l 833 0 z "},"O":{"ha":972,"x_min":0,"x_max":903,"o":"m 903 451 q 770 133 903 265 q 451 0 638 0 q 132 132 264 0 q 0 451 0 264 q 133 770 0 638 q 451 903 265 903 q 770 770 638 903 q 903 451 903 638 m 625 451 q 574 574 625 522 q 451 625 522 625 q 328 574 379 625 q 278 451 278 524 q 328 328 278 379 q 451 278 379 278 q 574 328 524 278 q 625 451 625 379 z "},"P":{"ha":903,"x_min":-97,"x_max":833,"o":"m 833 597 q 744 381 833 471 q 528 292 654 292 l 278 292 l 278 0 l 0 0 l 0 625 l -97 625 l -97 903 l 528 903 q 744 813 654 903 q 833 597 833 724 m 556 597 q 472 667 556 667 l 278 667 l 278 528 l 472 528 q 556 597 556 528 z "},"Q":{"ha":1042,"x_min":0,"x_max":972,"o":"m 972 0 l 451 0 q 133 133 265 0 q 0 451 0 265 q 133 770 0 638 q 451 903 265 903 q 770 770 638 903 q 903 451 903 638 q 868 278 903 361 l 972 278 l 972 0 m 625 451 q 574 574 625 524 q 451 625 524 625 q 329 574 381 625 q 278 451 278 522 q 328 328 278 379 q 451 278 379 278 q 574 328 524 278 q 625 451 625 379 z "},"R":{"ha":931,"x_min":-97,"x_max":861,"o":"m 861 0 l 681 0 q 486 83 569 0 l 278 292 l 278 0 l 0 0 l 0 625 l -97 625 l -97 903 l 528 903 q 744 813 654 903 q 833 597 833 724 q 784 431 833 507 q 653 318 735 356 q 722 278 671 278 l 861 278 l 861 0 m 556 597 q 472 667 556 667 l 278 667 l 278 528 l 472 528 q 556 597 556 528 z "},"S":{"ha":903,"x_min":-97,"x_max":833,"o":"m 833 625 l 467 625 q 454 608 454 621 q 458 594 454 601 l 567 533 q 736 278 736 439 q 655 81 736 163 q 458 0 574 0 l -97 0 l -97 278 l 367 278 q 379 294 379 282 q 375 308 379 301 l 267 369 q 97 625 97 464 q 178 822 97 740 q 375 903 260 903 l 833 903 l 833 625 z "},"T":{"ha":903,"x_min":-97,"x_max":833,"o":"m 833 625 l 556 625 l 556 0 l 278 0 l 278 625 l -97 625 l -97 903 l 833 903 l 833 625 z "},"U":{"ha":903,"x_min":-97,"x_max":833,"o":"m 833 417 q 711 122 833 244 q 417 0 589 0 q 122 122 244 0 q 0 417 0 244 l 0 625 l -97 625 l -97 903 l 278 903 l 278 417 q 319 319 278 360 q 417 278 360 278 q 515 319 474 278 q 556 417 556 360 l 556 903 l 833 903 l 833 417 z "},"V":{"ha":1042,"x_min":-97,"x_max":972,"o":"m 972 903 l 667 0 l 306 0 l 94 625 l -97 625 l -97 903 l 292 903 l 486 328 l 681 903 l 972 903 z "},"W":{"ha":1458,"x_min":-97,"x_max":1389,"o":"m 1389 903 l 1083 0 l 806 0 l 694 319 l 583 0 l 306 0 l 94 625 l -97 625 l -97 903 l 292 903 l 424 528 l 556 903 l 833 903 l 965 528 l 1097 903 l 1389 903 z "},"X":{"ha":972,"x_min":-97,"x_max":903,"o":"m 903 0 l 569 0 l 451 188 l 333 0 l 0 0 l 285 451 l 175 625 l -97 625 l -97 903 l 333 903 l 451 715 l 569 903 l 903 903 l 618 451 l 903 0 z "},"Y":{"ha":972,"x_min":-97,"x_max":903,"o":"m 903 903 l 590 424 l 590 0 l 313 0 l 313 424 l 181 625 l -97 625 l -97 903 l 333 903 l 451 715 l 569 903 l 903 903 z "},"Z":{"ha":903,"x_min":-97,"x_max":833,"o":"m 833 0 l 0 0 l 0 278 l 403 625 l -97 625 l -97 903 l 833 903 l 833 625 l 431 278 l 833 278 l 833 0 z "},"a":{"ha":1042,"x_min":0,"x_max":972,"o":"m 972 0 l 681 0 l 643 111 l 329 111 l 292 0 l 0 0 l 306 903 l 667 903 l 972 0 m 578 306 l 486 575 l 394 306 l 578 306 z "},"b":{"ha":903,"x_min":0,"x_max":833,"o":"m 833 306 q 744 90 833 179 q 528 0 654 0 l 0 0 l 0 903 l 528 903 q 744 813 654 903 q 833 597 833 724 q 782 451 833 543 q 833 306 833 360 m 556 597 q 472 667 556 667 l 278 667 l 278 528 l 472 528 q 556 597 556 528 m 556 306 q 472 375 556 375 l 278 375 l 278 236 l 472 236 q 556 306 556 236 z "},"c":{"ha":833,"x_min":0,"x_max":764,"o":"m 764 0 l 451 0 q 132 132 264 0 q 0 451 0 264 q 133 770 0 638 q 451 903 265 903 l 764 903 l 764 625 l 451 625 q 328 574 379 625 q 278 451 278 524 q 328 328 278 379 q 451 278 379 278 l 764 278 l 764 0 z "},"d":{"ha":903,"x_min":0,"x_max":833,"o":"m 833 451 q 701 132 833 264 q 382 0 569 0 l 0 0 l 0 903 l 382 903 q 701 770 568 903 q 833 451 833 638 m 556 451 q 505 574 556 524 q 382 625 454 625 l 278 625 l 278 278 l 382 278 q 505 328 454 278 q 556 451 556 379 z "},"e":{"ha":903,"x_min":0,"x_max":833,"o":"m 833 0 l 0 0 l 0 903 l 833 903 l 833 625 l 278 625 l 278 556 l 694 556 l 694 347 l 278 347 l 278 278 l 833 278 l 833 0 z "},"f":{"ha":903,"x_min":0,"x_max":833,"o":"m 833 625 l 278 625 l 278 556 l 694 556 l 694 347 l 278 347 l 278 0 l 0 0 l 0 903 l 833 903 l 833 625 z "},"g":{"ha":903,"x_min":0,"x_max":833,"o":"m 833 0 l 451 0 q 132 132 264 0 q 0 451 0 264 q 133 770 0 638 q 451 903 265 903 l 833 903 l 833 625 l 451 625 q 328 574 379 625 q 278 451 278 524 q 328 328 278 379 q 451 278 379 278 l 556 278 l 556 486 l 833 486 l 833 0 z "},"h":{"ha":903,"x_min":0,"x_max":833,"o":"m 833 0 l 556 0 l 556 347 l 278 347 l 278 0 l 0 0 l 0 903 l 278 903 l 278 556 l 556 556 l 556 903 l 833 903 l 833 0 z "},"i":{"ha":347,"x_min":0,"x_max":278,"o":"m 278 0 l 0 0 l 0 903 l 278 903 l 278 0 z "},"j":{"ha":556,"x_min":0,"x_max":486,"o":"m 486 139 q 364 -156 486 -33 q 69 -278 242 -278 l 0 0 l 69 0 q 167 41 126 0 q 208 139 208 82 l 208 903 l 486 903 l 486 139 z "},"k":{"ha":931,"x_min":0,"x_max":861,"o":"m 861 0 l 667 0 q 472 83 556 0 l 278 278 l 278 0 l 0 0 l 0 903 l 278 903 l 278 549 l 514 903 l 833 903 l 521 435 l 653 304 q 736 278 679 278 l 861 278 l 861 0 z "},"l":{"ha":903,"x_min":0,"x_max":833,"o":"m 833 0 l 0 0 l 0 903 l 278 903 l 278 278 l 833 278 l 833 0 z "},"m":{"ha":1042,"x_min":0,"x_max":972,"o":"m 972 0 l 694 0 l 694 306 l 486 0 l 278 306 l 278 0 l 0 0 l 0 903 l 278 903 l 486 597 l 694 903 l 972 903 l 972 0 z "},"n":{"ha":903,"x_min":0,"x_max":833,"o":"m 833 0 l 556 0 q 442 379 556 258 q 278 458 367 458 l 278 0 l 0 0 l 0 903 l 6 903 q 363 826 201 903 q 556 667 506 758 l 556 903 l 833 903 l 833 0 z "},"o":{"ha":972,"x_min":0,"x_max":903,"o":"m 903 451 q 770 133 903 265 q 451 0 638 0 q 132 132 264 0 q 0 451 0 264 q 133 770 0 638 q 451 903 265 903 q 770 770 638 903 q 903 451 903 638 m 625 451 q 574 574 625 522 q 451 625 522 625 q 328 574 379 625 q 278 451 278 524 q 328 328 278 379 q 451 278 379 278 q 574 328 524 278 q 625 451 625 379 z "},"p":{"ha":903,"x_min":0,"x_max":833,"o":"m 833 597 q 744 381 833 471 q 528 292 654 292 l 278 292 l 278 0 l 0 0 l 0 903 l 528 903 q 744 813 654 903 q 833 597 833 724 m 556 597 q 472 667 556 667 l 278 667 l 278 528 l 472 528 q 556 597 556 528 z "},"q":{"ha":1042,"x_min":0,"x_max":972,"o":"m 972 0 l 451 0 q 133 133 265 0 q 0 451 0 265 q 133 770 0 638 q 451 903 265 903 q 770 770 638 903 q 903 451 903 638 q 868 278 903 361 l 972 278 l 972 0 m 625 451 q 574 574 625 524 q 451 625 524 625 q 329 574 381 625 q 278 451 278 522 q 328 328 278 379 q 451 278 379 278 q 574 328 524 278 q 625 451 625 379 z "},"r":{"ha":931,"x_min":0,"x_max":861,"o":"m 861 0 l 681 0 q 486 83 569 0 l 278 292 l 278 0 l 0 0 l 0 903 l 528 903 q 744 813 654 903 q 833 597 833 724 q 784 431 833 507 q 653 318 735 356 q 722 278 671 278 l 861 278 l 861 0 m 556 597 q 472 667 556 667 l 278 667 l 278 528 l 472 528 q 556 597 556 528 z "},"s":{"ha":903,"x_min":0,"x_max":833,"o":"m 833 625 l 467 625 q 454 608 454 621 q 458 594 454 601 l 567 533 q 736 278 736 439 q 655 81 736 163 q 458 0 574 0 l 0 0 l 0 278 l 367 278 q 379 294 379 282 q 375 308 379 301 l 267 369 q 97 625 97 464 q 178 822 97 740 q 375 903 260 903 l 833 903 l 833 625 z "},"t":{"ha":903,"x_min":0,"x_max":833,"o":"m 833 625 l 556 625 l 556 0 l 278 0 l 278 625 l 0 625 l 0 903 l 833 903 l 833 625 z "},"u":{"ha":903,"x_min":0,"x_max":833,"o":"m 833 417 q 711 122 833 244 q 417 0 589 0 q 122 122 244 0 q 0 417 0 244 l 0 903 l 278 903 l 278 417 q 319 319 278 360 q 417 278 360 278 q 515 319 474 278 q 556 417 556 360 l 556 903 l 833 903 l 833 417 z "},"v":{"ha":1042,"x_min":0,"x_max":972,"o":"m 972 903 l 667 0 l 306 0 l 0 903 l 292 903 l 486 328 l 681 903 l 972 903 z "},"w":{"ha":1458,"x_min":0,"x_max":1389,"o":"m 1389 903 l 1083 0 l 806 0 l 694 319 l 583 0 l 306 0 l 0 903 l 292 903 l 424 528 l 556 903 l 833 903 l 965 528 l 1097 903 l 1389 903 z "},"x":{"ha":972,"x_min":0,"x_max":903,"o":"m 903 0 l 569 0 l 451 188 l 333 0 l 0 0 l 285 451 l 0 903 l 333 903 l 451 715 l 569 903 l 903 903 l 618 451 l 903 0 z "},"y":{"ha":972,"x_min":0,"x_max":903,"o":"m 903 903 l 590 424 l 590 0 l 313 0 l 313 424 l 0 903 l 333 903 l 451 715 l 569 903 l 903 903 z "},"z":{"ha":903,"x_min":0,"x_max":833,"o":"m 833 0 l 0 0 l 0 278 l 403 625 l 0 625 l 0 903 l 833 903 l 833 625 l 431 278 l 833 278 l 833 0 z "},"¡":{"ha":347,"x_min":0,"x_max":278,"o":"m 278 764 q 237 666 278 707 q 139 625 196 625 q 41 666 82 625 q 0 764 0 707 q 41 862 0 821 q 139 903 82 903 q 237 862 196 903 q 278 764 278 821 m 278 0 l 0 0 l 28 556 l 250 556 l 278 0 z "},"©":{"ha":972,"x_min":0,"x_max":458,"o":"m 458 229 q 391 67 458 135 q 229 0 324 0 q 67 67 135 0 q 0 229 0 135 q 67 391 0 324 q 229 458 135 458 q 391 391 324 458 q 458 229 458 324 m 431 229 q 372 372 431 313 q 229 431 313 431 q 87 372 146 431 q 28 229 28 313 q 87 87 28 146 q 229 28 146 28 q 372 87 313 28 q 431 229 431 146 m 321 79 l 218 79 q 113 123 157 79 q 69 228 69 167 q 113 333 69 290 q 218 376 157 376 l 321 376 l 321 285 l 218 285 q 178 268 194 285 q 161 228 161 251 q 178 188 161 204 q 218 171 194 171 l 321 171 l 321 79 z "},"®":{"ha":528,"x_min":0,"x_max":458,"o":"m 458 229 q 391 67 458 135 q 229 0 324 0 q 67 67 135 0 q 0 229 0 135 q 67 391 0 324 q 229 458 135 458 q 391 391 324 458 q 458 229 458 324 m 281 281 q 253 303 281 303 l 189 303 l 189 257 l 253 257 q 281 281 281 257 m 431 229 q 372 372 431 313 q 229 431 313 431 q 87 372 146 431 q 28 229 28 313 q 87 87 28 146 q 229 28 146 28 q 368 83 310 28 l 322 83 q 257 111 285 83 l 189 179 l 189 83 l 97 83 l 97 381 l 271 381 q 342 351 313 381 q 372 281 372 322 q 313 189 372 215 q 336 175 318 175 l 382 175 l 382 97 q 431 229 431 154 z "},"¶":{"ha":764,"x_min":0,"x_max":694,"o":"m 694 625 l 625 625 l 625 0 l 486 0 l 486 625 l 417 625 l 417 0 l 278 0 l 278 347 q 81 428 163 347 q 0 625 0 510 q 81 822 0 740 q 278 903 163 903 l 694 903 l 694 625 z "},"¿":{"ha":764,"x_min":0,"x_max":694,"o":"m 556 764 q 515 666 556 707 q 417 625 474 625 q 319 666 360 625 q 278 764 278 707 q 319 862 278 821 q 417 903 360 903 q 515 862 474 903 q 556 764 556 821 m 694 278 q 613 81 694 163 q 417 0 532 0 l 278 0 q 81 81 163 0 q 0 278 0 163 l 0 306 q 69 433 0 381 q 236 486 139 486 q 285 506 265 486 q 306 556 306 526 l 528 556 l 528 528 q 475 400 528 453 q 347 347 422 347 q 298 327 318 347 q 278 278 278 307 l 278 250 q 298 201 278 221 q 347 181 318 181 q 397 201 376 181 q 417 250 417 221 l 417 306 l 694 306 l 694 278 z "},"Æ":{"ha":1486,"x_min":0,"x_max":1417,"o":"m 1417 0 l 722 0 l 722 111 l 421 111 l 347 0 l 0 0 l 599 903 l 1417 903 l 1417 625 l 1000 625 l 1000 542 l 1278 542 l 1278 361 l 1000 361 l 1000 278 l 1417 278 l 1417 0 m 722 306 l 722 565 l 549 306 l 722 306 z "},"æ":{"ha":1486,"x_min":0,"x_max":1417,"o":"m 1417 0 l 722 0 l 722 111 l 421 111 l 347 0 l 0 0 l 599 903 l 1417 903 l 1417 625 l 1000 625 l 1000 542 l 1278 542 l 1278 361 l 1000 361 l 1000 278 l 1417 278 l 1417 0 m 722 306 l 722 565 l 549 306 l 722 306 z "},"Œ":{"ha":1389,"x_min":0,"x_max":1319,"o":"m 1319 0 l 625 0 l 625 35 q 451 0 542 0 q 132 132 264 0 q 0 451 0 264 q 133 770 0 638 q 451 903 265 903 q 625 868 542 903 l 625 903 l 1319 903 l 1319 625 l 903 625 l 903 542 l 1181 542 l 1181 361 l 903 361 l 903 278 l 1319 278 l 1319 0 m 625 451 q 574 574 625 522 q 451 625 522 625 q 328 574 379 625 q 278 451 278 524 q 328 328 278 379 q 451 278 379 278 q 574 328 524 278 q 625 451 625 379 z "},"œ":{"ha":1389,"x_min":0,"x_max":1319,"o":"m 1319 0 l 625 0 l 625 35 q 451 0 542 0 q 132 132 264 0 q 0 451 0 264 q 133 770 0 638 q 451 903 265 903 q 625 868 542 903 l 625 903 l 1319 903 l 1319 625 l 903 625 l 903 542 l 1181 542 l 1181 361 l 903 361 l 903 278 l 1319 278 l 1319 0 m 625 451 q 574 574 625 522 q 451 625 522 625 q 328 574 379 625 q 278 451 278 524 q 328 328 278 379 q 451 278 379 278 q 574 328 524 278 q 625 451 625 379 z "},"‘":{"ha":347,"x_min":0,"x_max":278,"o":"m 278 694 q 237 597 278 638 q 139 556 196 556 q 41 597 82 556 q 0 694 0 638 q 81 891 0 810 q 278 972 163 972 l 278 903 q 180 883 221 903 q 139 833 139 863 q 237 792 196 833 q 278 694 278 751 m 278 972 z "},"’":{"ha":347,"x_min":0,"x_max":278,"o":"m 278 764 q 197 567 278 649 q 0 486 115 486 l 0 556 q 98 576 57 556 q 139 625 139 596 q 41 666 82 625 q 0 764 0 707 q 41 862 0 821 q 139 903 82 903 q 237 862 196 903 q 278 764 278 821 m 0 486 z "},"‚":{"ha":347,"x_min":0,"x_max":278,"o":"m 278 139 q 197 -58 278 24 q 0 -139 115 -139 l 0 -69 q 98 -49 57 -69 q 139 0 139 -29 q 41 41 82 0 q 0 139 0 82 q 41 237 0 196 q 139 278 82 278 q 237 237 196 278 q 278 139 278 196 m 0 -139 z "},"‛":{"ha":653,"x_min":0,"x_max":583,"o":"m 583 694 q 542 597 583 638 q 444 556 501 556 q 347 597 388 556 q 306 694 306 638 q 387 891 306 810 q 583 972 468 972 l 583 903 q 485 883 526 903 q 444 833 444 863 q 542 792 501 833 q 583 694 583 751 m 278 694 q 237 597 278 638 q 139 556 196 556 q 41 597 82 556 q 0 694 0 638 q 81 891 0 810 q 278 972 163 972 l 278 903 q 180 883 221 903 q 139 833 139 863 q 237 792 196 833 q 278 694 278 751 m 583 972 m 278 972 z "},"“":{"ha":653,"x_min":0,"x_max":583,"o":"m 583 694 q 542 597 583 638 q 444 556 501 556 q 347 597 388 556 q 306 694 306 638 q 387 891 306 810 q 583 972 468 972 l 583 903 q 485 883 526 903 q 444 833 444 863 q 542 792 501 833 q 583 694 583 751 m 278 694 q 237 597 278 638 q 139 556 196 556 q 41 597 82 556 q 0 694 0 638 q 81 891 0 810 q 278 972 163 972 l 278 903 q 180 883 221 903 q 139 833 139 863 q 237 792 196 833 q 278 694 278 751 m 583 972 m 278 972 z "},"”":{"ha":653,"x_min":0,"x_max":583,"o":"m 583 764 q 502 567 583 649 q 306 486 421 486 l 306 556 q 403 576 363 556 q 444 625 444 596 q 347 666 388 625 q 306 764 306 707 q 347 862 306 821 q 444 903 388 903 q 542 862 501 903 q 583 764 583 821 m 278 764 q 197 567 278 649 q 0 486 115 486 l 0 556 q 98 576 57 556 q 139 625 139 596 q 41 666 82 625 q 0 764 0 707 q 41 862 0 821 q 139 903 82 903 q 237 862 196 903 q 278 764 278 821 m 306 486 m 0 486 z "},"„":{"ha":653,"x_min":0,"x_max":583,"o":"m 583 139 q 502 -58 583 24 q 306 -139 421 -139 l 306 -69 q 403 -49 363 -69 q 444 0 444 -29 q 347 41 388 0 q 306 139 306 82 q 347 237 306 196 q 444 278 388 278 q 542 237 501 278 q 583 139 583 196 m 278 139 q 197 -58 278 24 q 0 -139 115 -139 l 0 -69 q 98 -49 57 -69 q 139 0 139 -29 q 41 41 82 0 q 0 139 0 82 q 41 237 0 196 q 139 278 82 278 q 237 237 196 278 q 278 139 278 196 m 306 -139 m 0 -139 z "}}}
